HIERARCHY
ROOT Hips
{
	OFFSET -3.958830 18.904000 13.208200
	CHANNELS 6 Xposition Yposition Zposition Zrotation Yrotation Xrotation 
	JOINT LHipJoint
	{
		OFFSET 0.000000 0.000000 0.000000
		CHANNELS 3 Zrotation Yrotation Xrotation
		JOINT LeftUpLeg
		{
			OFFSET 1.800000 -1.400000 0.085000
			CHANNELS 3 Zrotation Yrotation Xrotation
			JOINT LeftLeg
			{
				OFFSET 2.215000 -6.000000 0.000000
				CHANNELS 3 Zrotation Yrotation Xrotation
				JOINT LeftFoot
				{
					OFFSET 2.500000 -6.900000 0.000000
					CHANNELS 3 Zrotation Yrotation Xrotation
					JOINT LeftToeBase
					{
						OFFSET 0.200000 -0.500000 1.950000
						CHANNELS 3 Zrotation Yrotation Xrotation
						End Site
						{
							OFFSET 0.000000 0.000000 0.000000
						}
					}
				}
			}
		}
	}
	JOINT RHipJoint
	{
		OFFSET 0.000000 0.000000 0.000000
		CHANNELS 3 Zrotation Yrotation Xrotation
		JOINT RightUpLeg
		{
			OFFSET -1.800000 -1.400000 0.085000
			CHANNELS 3 Zrotation Yrotation Xrotation
			JOINT RightLeg
			{
				OFFSET -2.215000 -6.000000 0.000000
				CHANNELS 3 Zrotation Yrotation Xrotation
				JOINT RightFoot
				{
					OFFSET -2.500000 -6.900000 0.000000
					CHANNELS 3 Zrotation Yrotation Xrotation
					JOINT RightToeBase
					{
						OFFSET -0.200000 -0.500000 1.950000
						CHANNELS 3 Zrotation Yrotation Xrotation
						End Site
						{
							OFFSET 0.000000 0.000000 0.000000
						}
					}
				}
			}
		}
	}
	JOINT LowerBack
	{
		OFFSET 0.000000 0.000000 0.000000
		CHANNELS 3 Zrotation Yrotation Xrotation
		JOINT Spine
		{
			OFFSET -0.087000 1.940000 -0.288900
			CHANNELS 3 Zrotation Yrotation Xrotation
			JOINT Spine1
			{
				OFFSET 0.000000 1.950000 0.060000
				CHANNELS 3 Zrotation Yrotation Xrotation
				JOINT Neck
				{
					OFFSET 0.000000 0.000000 0.000000
					CHANNELS 3 Zrotation Yrotation Xrotation
					JOINT Neck1
					{
						OFFSET 0.000000 1.600000 0.340000
						CHANNELS 3 Zrotation Yrotation Xrotation
						JOINT Head
						{
							OFFSET 0.000000 1.667000 -0.240000
							CHANNELS 3 Zrotation Yrotation Xrotation
							End Site
							{
								OFFSET 0.000000 0.000000 0.000000
							}
						}
					}
				}
				JOINT LeftShoulder
				{
					OFFSET 0.000000 0.000000 0.000000
					CHANNELS 3 Zrotation Yrotation Xrotation
					JOINT LeftArm
					{
						OFFSET 2.700000 1.550000 -0.730000
						CHANNELS 3 Zrotation Yrotation Xrotation
						JOINT LeftForeArm
						{
							OFFSET 5.450000 0.000000 0.000000
							CHANNELS 3 Zrotation Yrotation Xrotation
							JOINT LeftHand
							{
								OFFSET 3.450000 0.000000 0.000000
								CHANNELS 3 Zrotation Yrotation Xrotation
								JOINT LeftHandIndex1
								{
									OFFSET 0.750000 0.000000 0.000000
									CHANNELS 3 Zrotation Yrotation Xrotation
									End Site
									{
										OFFSET 0.000000 0.000000 0.000000
									}
								}
							}
						}
					}
				}
				JOINT RightShoulder
				{
					OFFSET 0.000000 0.000000 0.000000
					CHANNELS 3 Zrotation Yrotation Xrotation
					JOINT RightArm
					{
						OFFSET -2.700000 1.550000 -0.730000
						CHANNELS 3 Zrotation Yrotation Xrotation
						JOINT RightForeArm
						{
							OFFSET -5.450000 0.000000 0.000000
							CHANNELS 3 Zrotation Yrotation Xrotation
							JOINT RightHand
							{
								OFFSET -3.450000 0.000000 0.000000
								CHANNELS 3 Zrotation Yrotation Xrotation
								JOINT RightHandIndex1
								{
									OFFSET -0.750000 0.000000 0.000000
									CHANNELS 3 Zrotation Yrotation Xrotation
									End Site
									{
										OFFSET 0.000000 0.000000 0.000000
									}
								}
							}
						}
					}
				}
			}
		}
	}
}
MOTION
Frames: 8
Frame Time: 0.016667
-0.651240 17.592140 -3.268730 -8.441140 -29.804638 -14.778361 -16.074425 15.989475 3.243999 18.517015 -0.127837 4.941010 -5.556472 7.644655 12.582576 0.284565 6.028137 2.489925 0.752390 0.550840 0.854790 17.386173 -8.889516 1.907849 -5.263017 1.286421 -15.603954 7.674714 -9.737622 34.583565 -1.070199 -4.677449 2.622650 0.015830 -0.502540 0.274140 -0.068785 -9.640571 -8.068705 -14.407281 1.880394 39.370528 11.526654 -0.103144 17.495530 0.137240 -3.909307 -15.504019 -28.391677 18.567607 59.531078 -8.579750 13.498120 -38.190310 -27.127439 -21.696873 10.133263 -47.909637 -26.127444 -6.307447 129.799683 -54.626171 -117.025311 -3.645712 2.089755 1.072300 -0.488240 0.724940 0.020680 26.383904 23.711296 11.843824 46.845442 -5.572594 -20.969687 13.557491 37.152573 0.454709 1.951509 -1.282466 0.115600 0.115990 -0.270040 -0.346880 
-0.677000 17.566660 -3.244260 -9.482440 -31.099945 -14.193196 -16.027382 15.926393 3.273498 19.565465 -0.169556 5.189949 -5.832106 7.809469 12.648537 0.299243 6.126506 2.446435 0.777890 0.576720 0.853120 17.429827 -8.932428 1.944865 -3.310486 1.253400 -12.432316 6.809614 -8.270993 29.766103 -0.976043 -3.959251 2.887840 0.027400 -0.514430 0.282340 -0.132935 -9.436583 -8.053812 -12.624554 1.413434 38.984674 10.745318 0.443998 17.523426 0.065882 -4.229287 -15.488541 -30.160042 19.499415 59.005010 -7.930390 13.224790 -38.679770 -28.114723 -21.298954 10.079235 -48.166138 -26.028939 -5.663385 130.412376 -54.965113 -118.290748 -3.620693 2.142910 1.082430 -0.503270 0.734030 0.031730 27.482809 23.547975 11.798071 46.695054 -5.531957 -20.699345 10.857814 35.934212 -0.119525 1.953104 -1.286757 0.128910 0.104840 -0.279200 -0.341550 
-0.724050 17.529710 -3.216160 -9.973942 -33.097680 -13.380389 -15.965549 15.832230 3.204497 19.996127 -0.088036 4.822691 -5.932632 8.015065 13.847565 0.332821 6.108880 2.420729 0.819310 0.649270 0.863640 17.483557 -8.974099 2.113623 -1.885941 0.794264 -7.471737 6.438998 -6.503173 20.999547 -0.905756 -3.118141 3.209172 0.040630 -0.558920 0.284460 -0.218368 -9.115903 -8.043332 -10.839133 1.542468 37.728979 10.167956 1.594743 18.097758 -0.111544 -4.255756 -16.206480 -32.038509 20.531960 59.869589 -7.367330 12.926620 -39.740070 -29.802796 -22.220697 10.904284 -47.694476 -25.521831 -5.770713 131.575196 -55.264053 -120.678095 -3.593932 2.172991 1.080360 -0.540320 0.778520 0.044340 29.559318 24.677647 12.348484 46.498224 -5.646591 -20.223708 4.309415 33.668991 -1.413040 1.989819 -1.272898 0.177600 0.090620 -0.310610 -0.319850 
-0.780700 17.478130 -3.179570 -10.958520 -34.914790 -11.691540 -15.879068 15.535698 3.134161 20.795903 -0.195199 4.286558 -6.570232 8.240009 14.553720 0.360917 6.098991 2.413417 0.890970 0.748150 0.897610 17.564653 -8.969861 2.474110 -0.527040 0.321273 -3.481195 6.494388 -5.241633 12.149038 -0.960890 -2.752615 3.364551 0.075750 -0.592070 0.282060 -0.482221 -8.457372 -8.102536 -7.941267 1.121494 36.146683 9.020237 2.311079 17.689648 -0.121127 -4.190207 -16.611812 -33.054166 21.342903 61.941913 -6.442070 12.664330 -40.425460 -32.307623 -22.325872 11.315904 -47.105014 -24.322885 -5.547526 132.310378 -56.135469 -122.553362 -3.529850 2.211516 1.094600 -0.575820 0.836760 0.092030 32.346696 24.903348 12.405621 45.856600 -5.663811 -17.899884 -0.752874 27.871336 -1.832848 2.086382 -1.218309 0.211680 0.102570 -0.376210 -0.297490 
-0.828740 17.416180 -3.157750 -11.826601 -35.696204 -9.815874 -15.714014 15.165990 3.045508 21.265727 -0.356230 3.235200 -6.921384 8.261977 15.077750 0.334732 5.982709 2.448653 0.938770 0.822070 0.902210 17.699239 -9.096273 2.864830 0.084441 -0.123220 -1.030467 7.039767 -4.575898 5.458717 -1.057242 -2.803074 3.371397 0.115760 -0.584060 0.259110 -1.051180 -7.487390 -8.112516 -4.285766 0.068018 35.308078 7.242014 2.129616 16.845199 -0.509535 -4.771917 -16.920537 -35.090166 22.517522 61.717300 -4.454890 12.381550 -40.808770 -33.712483 -22.171953 11.488539 -46.747869 -23.525209 -5.207063 133.110850 -55.806126 -122.996544 -3.475503 2.243661 1.096910 -0.594960 0.854800 0.134570 34.796038 24.768107 11.958040 44.823388 -4.876565 -14.423719 -2.834531 20.188948 -1.327280 2.210720 -1.118511 0.216640 0.140890 -0.417560 -0.271420 
-0.863850 17.384510 -3.150920 -12.446750 -36.374290 -8.329608 -15.535547 14.812258 2.974038 21.613372 -0.429707 2.322390 -7.392444 8.291211 15.413586 0.304577 5.886600 2.464445 0.961270 0.865520 0.877470 17.856177 -9.249086 3.159469 0.269036 -0.400777 0.168683 7.829546 -4.199630 0.893738 -1.142996 -2.959200 3.331880 0.139830 -0.582930 0.241470 -1.704881 -6.520927 -8.098761 -0.688407 -0.839489 35.465707 5.031762 1.815963 16.281921 -0.569229 -5.352154 -17.574219 -37.578323 24.178832 60.273847 -3.498940 12.389890 -41.256300 -34.088797 -22.954321 12.075769 -45.891126 -22.728485 -6.112051 133.313760 -55.025635 -122.515879 -3.460776 2.235114 1.100320 -0.614370 0.859920 0.160070 35.453797 25.389997 11.851565 45.366839 -4.120535 -13.151918 -3.990895 16.996065 -1.156017 2.270223 -1.074123 0.221380 0.159290 -0.428980 -0.250900 
-0.896210 17.377870 -3.153620 -13.056354 -36.232424 -6.907010 -15.339697 14.514787 2.923755 22.079361 -0.578149 0.821480 -7.835002 8.359367 16.175642 0.316342 5.791996 2.492960 0.964600 0.883630 0.845140 18.019979 -9.493652 3.319041 0.364181 -0.386523 -0.244113 8.706524 -4.068381 -0.606774 -1.171782 -3.013175 3.328906 0.135550 -0.565490 0.226750 -2.395547 -5.546141 -8.025928 2.904045 -2.144867 36.474967 2.338137 1.060420 14.498949 -0.379726 -5.900406 -17.448209 -39.613964 25.078188 58.044350 -2.440820 11.939340 -41.103720 -34.328572 -22.579490 12.006614 -45.341358 -22.030395 -6.683525 132.585798 -55.312998 -121.355833 -3.444237 2.241329 1.069940 -0.628990 0.852550 0.189950 35.439621 24.610935 11.303275 46.638439 -3.623753 -13.582457 -4.149422 17.806647 -1.332182 2.302835 -1.078345 0.242160 0.169730 -0.445420 -0.210090 
-0.910890 17.386500 -3.192170 -12.107772 -35.522495 -6.456636 -15.212993 14.454145 2.882455 21.236607 -0.781999 -1.372634 -7.905070 8.289948 17.597114 0.250028 5.687645 2.530075 0.901630 0.795110 0.771020 18.102353 -9.751140 3.286118 -0.428856 -0.060738 -2.371011 8.779181 -4.076744 0.507498 -1.081522 -2.900557 3.377425 0.101500 -0.511660 0.224130 -2.750251 -5.031439 -7.913791 3.749669 -2.790305 38.485459 0.580714 0.567421 12.527811 -0.284385 -6.486524 -16.766159 -40.619802 24.620237 54.553596 -2.501740 11.233250 -40.584330 -33.156860 -21.625557 11.227840 -45.313835 -22.723273 -6.675282 130.930673 -55.798641 -118.839399 -3.468679 2.228274 1.054300 -0.607610 0.793040 0.192400 34.068880 23.447609 10.581027 48.212895 -2.777291 -14.056435 -1.159628 19.168995 -1.175357 2.290729 -1.062498 0.211340 0.170670 -0.402310 -0.198330 
